<?xml version="1.0" encoding="UTF-8"?>
<svg id="Capa_2" xmlns="http://www.w3.org/2000/svg" version="1.1" viewBox="0 0 679.2 534.8">
  <!-- Generator: Adobe Illustrator 30.4.0, SVG Export Plug-In . SVG Version: 2.1.4 Build 226)  -->
  <defs>
    <style>
      .st0 {
        fill: #fcbf2c;
      }

      .st1 {
        fill: #5b6af0;
      }
    </style>
  </defs>
  <g id="Capa_1-2">
    <g>
      <path class="st0" d="M530.3,139.9c.9.3.9,1.7,0,2l-9.9,3.7c-4.1,1.5-7.4,4.8-8.9,8.9l-3.7,9.9c-.3.9-1.7.9-2,0l-3.7-9.9c-1.5-4.1-4.8-7.4-8.9-8.9l-9.9-3.7c-.9-.3-.9-1.7,0-2l9.9-3.7c4.1-1.5,7.4-4.8,8.9-8.9l3.7-9.9c.3-.9,1.7-.9,2,0l3.7,9.9c1.5,4.1,4.8,7.4,8.9,8.9,0,0,9.9,3.7,9.9,3.7Z"/>
      <rect class="st1" x="492" y="193" width="18.1" height="18.1"/>
      <rect class="st1" x="470.2" y="169.2" width="18.1" height="18.1"/>
      <rect class="st1" x="459.1" y="206.7" width="18.7" height="18.2"/>
      <path class="st1" d="M493.2,225.8l-64.7,185.9c-1.3,3.9-5,6.5-9.1,6.5h-46.9c-4.2,0-7.8-2.7-9.1-6.6l-36.4-109.9-36.4,109.9c-1.3,3.9-5,6.6-9.1,6.6h-46.9c-4.1,0-7.7-2.6-9.1-6.5l-76.6-220c-2.2-6.3,2.5-12.8,9.1-12.8h66.9c4.2,0,8,2.8,9.2,6.9l33.6,111.4,32.7-79.2c1.5-3.6,5-6,8.9-6h35.6c3.9,0,7.4,2.4,8.9,6l32.7,79.2,33.6-111.4c1.2-4.1,5-6.9,9.2-6.9h28.2v23.8h-20.5v22.4h19v22.3h22.4v-21.5h15Z"/>
    </g>
  </g>
</svg>